<!-- icon666.com - MILLIONS vector ICONS FREE --><svg version="1.1" id="Capa_1" xmlns="http://www.w3.org/2000/svg" xmlns:xlink="http://www.w3.org/1999/xlink" x="0px" y="0px" viewBox="0 0 512.001 512.001" style="enable-background:new 0 0 512.001 512.001;" xml:space="preserve"><g><g><path d="M456.886,379.243l-17.76-11.829c-13.592,20.931-21.557,45.013-23.125,69.92c1.569,24.907,9.533,48.989,23.125,69.92 l17.749-11.84c-11.259-17.426-17.977-37.392-19.541-58.08C438.93,416.647,445.649,396.684,456.886,379.243z"></path></g></g><g><g><rect x="330.667" y="405.333" width="96" height="21.333"></rect></g></g><g><g><rect x="288" y="405.333" width="21.333" height="21.333"></rect></g></g><g><g><rect x="245.334" y="405.333" width="21.333" height="21.333"></rect></g></g><g><g><rect x="245.334" y="448" width="106.667" height="21.333"></rect></g></g><g><g><rect x="373.334" y="448" width="21.333" height="21.333"></rect></g></g><g><g><path d="M448,0H138.667c-1.655-0.002-3.287,0.382-4.768,1.12l-16.565,8.288L100.768,1.12C99.287,0.382,97.655-0.002,96,0 c-41.218,0.047-74.62,33.449-74.667,74.667v362.667C21.381,478.551,54.783,511.953,96,512c1.65,0.018,3.283-0.347,4.768-1.067 l16.565-8.341l16.565,8.341c1.485,0.72,3.118,1.085,4.768,1.067h330.667v-21.227H141.184l-19.083-9.6 c-3.002-1.5-6.534-1.5-9.536,0l-18.976,9.493c-27.581-1.235-49.661-23.314-50.895-50.895 c-1.317-29.426,21.469-54.348,50.895-55.665l18.976,9.493c3.002,1.5,6.534,1.5,9.536,0l19.083-9.6H448 c23.564,0,42.667-19.102,42.667-42.667V42.667C490.667,19.103,471.565,0,448,0z M469.334,341.333 c0,11.782-9.551,21.333-21.333,21.333H138.667c-1.655-0.002-3.287,0.382-4.768,1.12l-16.565,8.288l-16.565-8.341 c-1.485-0.72-3.118-1.085-4.768-1.067c-20.07-0.027-39.301,8.05-53.333,22.4v-310.4c0.032-28.505,22.448-51.959,50.923-53.28 l18.976,9.547c3.002,1.5,6.534,1.5,9.536,0l19.083-9.6H448c11.782,0,21.333,9.551,21.333,21.333V341.333z"></path></g></g><g><g><rect x="138.667" y="405.333" width="85.333" height="21.333"></rect></g></g><g><g><rect x="202.667" y="448" width="21.333" height="21.333"></rect></g></g><g><g><rect x="160" y="448" width="21.333" height="21.333"></rect></g></g><g><g><rect x="85.334" y="10.667" width="21.333" height="330.667"></rect></g></g><g><g><rect x="128" y="42.667" width="21.333" height="330.667"></rect></g></g><g><g><path d="M256,10.667v138.667l-25.6-19.2c-3.793-2.844-9.007-2.844-12.8,0l-25.6,19.2V10.667h-21.333v160 c0,2.308,0.749,4.554,2.133,6.4c3.535,4.713,10.221,5.668,14.933,2.133L224,152l36.267,27.2c1.846,1.385,4.092,2.133,6.4,2.133 c5.891,0,10.667-4.776,10.667-10.667v-160H256z"></path></g></g><g><g><path d="M426.667,245.333V320h-85.333v21.333h96c5.891,0,10.667-4.776,10.667-10.667v-85.333H426.667z"></path></g></g><g><g><rect x="426.667" y="160" width="21.333" height="64"></rect></g></g></svg>