<!-- icon666.com - MILLIONS vector ICONS FREE --><svg id="Layer_3" enable-background="new 0 0 60 60" viewBox="0 0 60 60" xmlns="http://www.w3.org/2000/svg"><path d="m48 55c.55 0 1-.45 1-1v-48c0-.55-.45-1-1-1h-36c-.55 0-1 .45-1 1v48c0 .55.45 1 1 1zm-35-48h34v46h-34z"></path><path d="m17.68 14.21h24.64c.55 0 1-.45 1-1s-.45-1-1-1h-24.64c-.55 0-1 .45-1 1s.45 1 1 1z"></path><path d="m17.68 22.7h24.64c.55 0 1-.45 1-1s-.45-1-1-1h-24.64c-.55 0-1 .45-1 1s.45 1 1 1z"></path><path d="m43.32 30.19c0-.55-.45-1-1-1h-24.64c-.55 0-1 .45-1 1s.45 1 1 1h24.64c.55 0 1-.45 1-1z"></path><path d="m33.96 35.7c-.13-.42-.52-.7-.95-.7s-.82.28-.95.7l-3.83 12.19c-.17.53.13 1.09.65 1.25.53.17 1.09-.13 1.25-.65l.67-2.15h4.4l.67 2.15c.13.43.53.7.95.7.1 0 .2-.01.3-.05.53-.17.82-.73.65-1.25zm-2.52 8.64 1.57-5.01 1.57 5.01z"></path><path d="m44.65 41.1h-1.43v-1.43c0-.55-.45-1-1-1s-1 .45-1 1v1.43h-1.42c-.55 0-1 .45-1 1s.45 1 1 1h1.43v1.43c0 .55.45 1 1 1s1-.45 1-1v-1.43h1.43c.55 0 1-.45 1-1s-.46-1-1.01-1z"></path></svg>