<?xml version="1.0" encoding="iso-8859-1"?>
<!-- Generator: Adobe Illustrator 18.0.0, SVG Export Plug-In . SVG Version: 6.00 Build 0)  -->
<!DOCTYPE svg PUBLIC "-//W3C//DTD SVG 1.1//EN" "http://www.w3.org/Graphics/SVG/1.1/DTD/svg11.dtd">
<svg version="1.1" id="Capa_1" xmlns="http://www.w3.org/2000/svg" xmlns:xlink="http://www.w3.org/1999/xlink" x="0px" y="0px"
	 viewBox="0 0 460.157 460.157" style="enable-background:new 0 0 460.157 460.157;" xml:space="preserve">
<g>
	<path d="M460.157,219.12h-51.766v-45.624c0-17.372-9.25-32.876-23.813-41.196c6.179-9.416,9.788-20.663,9.788-32.742
		c0-33.001-26.848-59.849-59.849-59.849s-59.849,26.848-59.849,59.849c0,12.08,3.609,23.326,9.788,32.742
		c-14.563,8.32-23.813,23.825-23.813,41.196v45.624h-61.129v-45.624c0-17.372-9.25-32.876-23.813-41.196
		c6.179-9.416,9.788-20.663,9.788-32.742c0-33.001-26.848-59.849-59.849-59.849S65.792,66.557,65.792,99.558
		c0,12.08,3.609,23.326,9.788,32.742c-14.563,8.32-23.813,23.825-23.813,41.196v45.624H0v52.877h20.592v148.451h15v-19.957h388.975
		v19.957h15V271.997h20.591V219.12z M393.392,219.12h-51.374v-60.2c12.418-1.561,23.666-6.927,32.523-14.909
		c11.422,5.254,18.851,16.613,18.851,29.485V219.12z M334.518,54.709c24.729,0,44.849,20.119,44.849,44.849
		s-20.119,44.849-44.849,44.849s-44.849-20.119-44.849-44.849S309.788,54.709,334.518,54.709z M275.644,173.496
		c0-12.872,7.429-24.231,18.851-29.485c8.857,7.982,20.105,13.348,32.523,14.909v60.2h-51.374V173.496z M184.515,219.12h-51.374
		v-60.2c12.418-1.561,23.666-6.927,32.523-14.909c11.422,5.254,18.851,16.613,18.851,29.485V219.12z M125.641,54.709
		c24.729,0,44.849,20.119,44.849,44.849s-20.119,44.849-44.849,44.849s-44.849-20.119-44.849-44.849S100.911,54.709,125.641,54.709z
		 M66.767,173.496c0-12.872,7.429-24.231,18.851-29.485c8.857,7.982,20.105,13.348,32.523,14.909v60.2H66.767V173.496z
		 M424.566,385.491H35.592V271.997h388.975V385.491z M445.157,256.997H15V234.12h430.157V256.997z"/>
	<circle cx="103.62" cy="116.558" r="9.141"/>
	<circle cx="147.661" cy="116.558" r="9.141"/>
	<circle cx="312.497" cy="116.558" r="9.141"/>
	<circle cx="356.538" cy="116.558" r="9.141"/>
</g>
<g>
</g>
<g>
</g>
<g>
</g>
<g>
</g>
<g>
</g>
<g>
</g>
<g>
</g>
<g>
</g>
<g>
</g>
<g>
</g>
<g>
</g>
<g>
</g>
<g>
</g>
<g>
</g>
<g>
</g>
</svg>
