<!-- icon666.com - MILLIONS vector ICONS FREE --><svg id="Capa_1" enable-background="new 0 0 512 512" viewBox="0 0 512 512" xmlns="http://www.w3.org/2000/svg"><g><path d="m446.604 94.391-89.995-89.995c-.005-.005-.01-.009-.015-.014-2.829-2.819-6.711-4.382-10.594-4.382h-270c-8.284 0-15 6.716-15 15v482c0 8.284 6.716 15 15 15h360c8.284 0 15-6.716 15-15v-392c0-6.758-4.328-10.505-4.396-10.609zm-85.604-43.178 38.787 38.787h-38.787zm-270 430.787v-452h240v75c0 8.284 6.716 15 15 15h75v362z"></path><path d="m130.429 238.927c7.692 3.078 16.421-.665 19.498-8.356l20.229-50.571h51.689l20.228 50.571c3.062 7.654 11.77 11.447 19.498 8.356 7.692-3.077 11.433-11.806 8.356-19.498-14.565-36.412-50.447-126.118-60-150-2.278-5.695-7.793-9.429-13.927-9.429s-11.649 3.734-13.927 9.429c-9.576 23.94-45.423 113.558-60 150-3.077 7.692.664 16.422 8.356 19.498zm65.571-123.538 13.844 34.611h-27.689z"></path><path d="m376 180h-15v-15c0-8.284-6.716-15-15-15s-15 6.716-15 15v15h-15c-8.284 0-15 6.716-15 15s6.716 15 15 15h15v15c0 8.284 6.716 15 15 15s15-6.716 15-15v-15h15c8.284 0 15-6.716 15-15s-6.716-15-15-15z"></path><path d="m376 270h-240c-8.284 0-15 6.716-15 15s6.716 15 15 15h240c8.284 0 15-6.716 15-15s-6.716-15-15-15z"></path><path d="m376 330h-240c-8.284 0-15 6.716-15 15s6.716 15 15 15h240c8.284 0 15-6.716 15-15s-6.716-15-15-15z"></path><path d="m316 390h-180c-8.284 0-15 6.716-15 15s6.716 15 15 15h180c8.284 0 15-6.716 15-15s-6.716-15-15-15z"></path></g></svg>