<!-- icon666.com - MILLIONS vector ICONS FREE --><svg version="1.1" id="Layer_1" xmlns="http://www.w3.org/2000/svg" xmlns:xlink="http://www.w3.org/1999/xlink" x="0px" y="0px" viewBox="0 0 477.867 477.867" style="enable-background:new 0 0 477.867 477.867;" xml:space="preserve"><g><g><path d="M317.181,76.285c-17.357-26.291-46.744-42.122-78.248-42.152c-51.841,0.05-93.826,42.115-93.777,93.956 c0.03,31.393,15.752,60.694,41.894,78.076c0.675,0.484,1.389,0.912,2.133,1.28c14.877,9.434,32.133,14.436,49.749,14.421 c17.359,0.048,34.375-4.834,49.067-14.08l2.56-1.451C333.824,177.775,345.743,119.549,317.181,76.285z"></path></g></g><g><g><path d="M359.424,285.611v-0.683c-14.551-26.914-37.721-48.16-65.792-60.331c-33.763,18.826-74.866,18.826-108.629,0 C156.9,236.752,133.698,258,119.125,284.928v0.683c-10.854,19.685-16.605,41.777-16.725,64.256v93.867h273.067v-93.867 C375.555,327.446,370.041,305.358,359.424,285.611z"></path></g></g><g><g><path d="M461.516,163.191c-7.979-11.347-20.977-18.107-34.849-18.124c-23.564,0.029-42.643,19.154-42.615,42.719 c0.017,13.872,6.777,26.87,18.124,34.849c14.763,10.108,34.219,10.108,48.981,0C470.433,209.08,475.071,182.466,461.516,163.191z"></path></g></g><g><g><path d="M456.107,239.701c-18.342,10.161-40.623,10.161-58.965,0c-13.036,9.183-21.05,23.917-21.675,39.851 c11.207,21.745,17.058,45.852,17.067,70.315v8.533h85.333v-76.8C477.87,264.923,469.751,249.29,456.107,239.701z"></path></g></g><g><g><path d="M86.049,163.191c-7.979-11.347-20.977-18.107-34.849-18.124c-23.564,0.029-42.643,19.154-42.615,42.719 c0.017,13.872,6.777,26.87,18.124,34.849c14.763,10.108,34.219,10.108,48.981,0C94.966,209.08,99.604,182.466,86.049,163.191z"></path></g></g><g><g><path d="M80.725,239.701c-18.342,10.161-40.623,10.161-58.965,0C8.116,249.29-0.003,264.923,0,281.6v76.8h85.333v-8.533 c0.008-24.463,5.86-48.57,17.067-70.315C101.775,263.618,93.762,248.885,80.725,239.701z"></path></g></g></svg>