<!-- icon666.com - MILLIONS vector ICONS FREE --><svg version="1.1" id="Capa_1" xmlns="http://www.w3.org/2000/svg" xmlns:xlink="http://www.w3.org/1999/xlink" x="0px" y="0px" viewBox="0 0 512 512" style="enable-background:new 0 0 512 512;" xml:space="preserve"><g><g><path d="M380.405,138.667h-9.6c-1.331,0-2.661,0.066-3.985,0.199c-22.058,2.203-38.154,21.871-35.951,43.929l4.779,47.723 c1.987,20.547,19.283,36.207,39.925,36.149c20.635,0.048,37.924-15.601,39.925-36.139l4.768-47.733 c0.132-1.314,0.199-2.635,0.201-3.956C420.498,156.683,402.562,138.697,380.405,138.667z M399.051,180.672l-4.768,47.733 c-0.88,8.922-7.938,15.981-16.86,16.86c-10.33,1.018-19.53-6.53-20.548-16.86l-4.779-47.733c-0.062-0.619-0.093-1.241-0.093-1.864 c-0.002-10.386,8.416-18.807,18.802-18.808h9.547c0.634,0,1.267,0.031,1.898,0.095 C392.571,161.138,400.093,170.35,399.051,180.672z"></path></g></g><g><g><path d="M458.667,64H53.333C23.893,64.035,0.035,87.893,0,117.333v277.333C0.035,424.107,23.893,447.965,53.333,448h405.333 c29.441-0.035,53.298-23.893,53.333-53.333V117.333C511.965,87.893,488.107,64.035,458.667,64z M490.667,394.667 c0,17.673-14.327,32-32,32H53.333c-17.673,0-32-14.327-32-32V117.333c0-17.673,14.327-32,32-32h405.333c17.673,0,32,14.327,32,32 V394.667z"></path></g></g><g><g><rect x="234.667" y="106.667" width="21.333" height="298.667"></rect></g></g><g><g><path d="M202.667,106.667H53.333c-5.891,0-10.667,4.776-10.667,10.667v53.333c0,5.891,4.776,10.667,10.667,10.667h149.333 c5.891,0,10.667-4.776,10.667-10.667v-53.333C213.333,111.442,208.558,106.667,202.667,106.667z M192,160H64v-32h128V160z"></path></g></g><g><g><rect x="42.667" y="202.667" width="170.667" height="21.333"></rect></g></g><g><g><rect x="42.667" y="245.333" width="74.667" height="21.333"></rect></g></g><g><g><rect x="138.667" y="245.333" width="74.667" height="21.333"></rect></g></g><g><g><rect x="42.667" y="288" width="21.333" height="21.333"></rect></g></g><g><g><rect x="85.333" y="288" width="21.333" height="21.333"></rect></g></g><g><g><rect x="128" y="288" width="85.333" height="21.333"></rect></g></g><g><g><rect x="192" y="330.667" width="21.333" height="21.333"></rect></g></g><g><g><rect x="149.333" y="330.667" width="21.333" height="21.333"></rect></g></g><g><g><rect x="42.667" y="330.667" width="85.333" height="21.333"></rect></g></g><g><g><rect x="42.667" y="373.333" width="21.333" height="21.333"></rect></g></g><g><g><rect x="85.333" y="373.333" width="21.333" height="21.333"></rect></g></g><g><g><path d="M335.435,265.547l-9.536-19.093c-29.843,14.796-48.678,45.272-48.565,78.581v80.299h21.333l0-80.299 C298.578,299.817,312.839,276.744,335.435,265.547z"></path></g></g><g><g><path d="M420.768,246.507l-9.536,19.093c22.578,11.189,36.836,34.236,36.768,59.435v80.299h21.333v-80.299 C469.425,291.745,450.593,261.294,420.768,246.507z"></path></g></g><g><g><path d="M399.413,279.147l-26.08,17.387l-26.08-17.408l-11.84,17.749l32,21.333c1.753,1.169,3.813,1.792,5.92,1.792 c2.105,0.007,4.165-0.609,5.92-1.771l32-21.333L399.413,279.147z"></path></g></g><g><g><rect x="362.667" y="309.333" width="21.333" height="96"></rect></g></g></svg>